<?xml version="1.0" encoding="UTF-8" standalone="no"?>
<!DOCTYPE svg PUBLIC "-//W3C//DTD SVG 1.1//EN" "http://www.w3.org/Graphics/SVG/1.1/DTD/svg11.dtd">
<!-- Generado por Microsoft Visio, SVG Export delorean.svg Página-1 -->
<svg xmlns="http://www.w3.org/2000/svg" xmlns:xlink="http://www.w3.org/1999/xlink" xmlns:ev="http://www.w3.org/2001/xml-events"
		xmlns:v="http://schemas.microsoft.com/visio/2003/SVGExtensions/" width="8.57576in" height="4.54808in"
		viewBox="0 0 617.455 327.461" xml:space="preserve" color-interpolation-filters="sRGB" class="st20">
	<v:documentProperties v:langID="3082" v:metric="true" v:viewMarkup="false"/>

	<style type="text/css">
	<![CDATA[
		.st1 {fill:#fee599;stroke:none;stroke-linecap:round;stroke-linejoin:round;stroke-width:0.24}
		.st2 {fill:#ff0000;stroke:none;stroke-linecap:round;stroke-linejoin:round;stroke-width:0.24}
		.st3 {fill:#f2f2f2;stroke:none;stroke-linecap:round;stroke-linejoin:round;stroke-width:0.24}
		.st4 {fill:#002060;stroke:#000000;stroke-linecap:round;stroke-linejoin:round;stroke-width:0.24}
		.st5 {fill:#002060;stroke:none;stroke-linecap:round;stroke-linejoin:round;stroke-width:0.24}
		.st6 {fill:#bfbfbf;stroke:none;stroke-linecap:round;stroke-linejoin:round;stroke-width:0.24}
		.st7 {fill:#595959;stroke:none;stroke-linecap:round;stroke-linejoin:round;stroke-width:0.24}
		.st8 {fill:#3f3f3f;stroke:none;stroke-linecap:round;stroke-linejoin:round;stroke-width:0.24}
		.st9 {fill:#cdcdcd;stroke:none;stroke-linecap:round;stroke-linejoin:round;stroke-width:0.24}
		.st10 {fill:#7f7f7f;stroke:none;stroke-linecap:round;stroke-linejoin:round;stroke-width:0.24}
		.st11 {fill:#363636;stroke:none;stroke-linecap:round;stroke-linejoin:round;stroke-width:0.24}
		.st12 {fill:#ffffff;stroke:none;stroke-linecap:round;stroke-linejoin:round;stroke-width:0.24}
		.st13 {fill:#ea700d;stroke:none;stroke-linecap:round;stroke-linejoin:round;stroke-width:0.24}
		.st14 {fill:#d8d8d8;stroke:none;stroke-linecap:round;stroke-linejoin:round;stroke-width:0.24}
		.st15 {stroke:#0c0c0c;stroke-linecap:round;stroke-linejoin:round;stroke-width:2.25}
		.st16 {stroke:#0c0c0c;stroke-linecap:round;stroke-linejoin:round;stroke-width:3}
		.st17 {fill:#dbeef3;stroke:none;stroke-linecap:round;stroke-linejoin:round;stroke-width:0.24}
		.st18 {fill:#0070c0;stroke:none;stroke-linecap:round;stroke-linejoin:round;stroke-width:0.24}
		.st19 {fill:#f2680d;stroke:none;stroke-linecap:round;stroke-linejoin:round;stroke-width:0.24}
		.st20 {fill:none;fill-rule:evenodd;font-size:12px;overflow:visible;stroke-linecap:square;stroke-miterlimit:3}
	]]>
	</style>

	<g v:mID="0" v:index="1" v:groupContext="foregroundPage">
		<title>Página-1</title>
		<v:pageProperties v:drawingScale="0.0393701" v:pageScale="0.0393701" v:drawingUnits="24" v:shadowOffsetX="8.50394"
				v:shadowOffsetY="-8.50394"/>
		<g id="group98-1" transform="translate(516.764,-0.12)" v:mID="98" v:groupContext="group">
			<title>Hoja.98</title>
			<g id="shape93-2" v:mID="93" v:groupContext="shape" transform="translate(66.4727,-5.1833) scale(-1,1)">
				<title>Paralelogramo.93</title>
				<v:userDefs>
					<v:ud v:nameU="visVersion" v:prompt="" v:val="VT0(15):26"/>
				</v:userDefs>
				<path d="M0 327.46 L22.68 327.46 L25.2 222.88 L2.52 222.88 L0 327.46 Z" class="st1"/>
			</g>
			<g id="shape94-4" v:mID="94" v:groupContext="shape" transform="translate(16.949,-5.1833)">
				<title>Paralelogramo.94</title>
				<v:userDefs>
					<v:ud v:nameU="visVersion" v:prompt="" v:val="VT0(15):26"/>
				</v:userDefs>
				<path d="M0 327.46 L22.68 327.46 L25.2 222.88 L2.52 222.88 L0 327.46 Z" class="st1"/>
			</g>
			<g id="group92-6" transform="translate(17.3233,-102.691)" v:mID="92" v:groupContext="group">
				<title>Hoja.92</title>
				<g id="shape90-7" v:mID="90" v:groupContext="shape">
					<title>Trapecio.90</title>
					<v:userDefs>
						<v:ud v:nameU="visVersion" v:prompt="" v:val="VT0(15):26"/>
					</v:userDefs>
					<path d="M0 327.46 L28.21 327.46 L19.97 250.15 L8.24 250.15 L0 327.46 Z" class="st2"/>
				</g>
				<g id="shape91-9" v:mID="91" v:groupContext="shape" transform="translate(46.1949,5.68434E-014) scale(-1,1)">
					<title>Trapezoid.76</title>
					<v:userDefs>
						<v:ud v:nameU="visVersion" v:prompt="" v:val="VT0(15):26"/>
					</v:userDefs>
					<path d="M0 327.46 L28.21 327.46 L19.97 250.15 L8.24 250.15 L0 327.46 Z" class="st2"/>
				</g>
			</g>
			<g id="shape88-11" v:mID="88" v:groupContext="shape" transform="translate(10.4294,5.68434E-014)">
				<title>Paralelogramo.88</title>
				<v:userDefs>
					<v:ud v:nameU="visVersion" v:prompt="" v:val="VT0(15):26"/>
				</v:userDefs>
				<path d="M0 327.46 L16.71 327.46 L22.11 147.47 L5.4 147.47 L0 327.46 Z" class="st3"/>
			</g>
			<g id="shape89-13" v:mID="89" v:groupContext="shape" transform="translate(70.5238,-0.00738879) scale(-1,1)">
				<title>Paralelogramo.89</title>
				<v:userDefs>
					<v:ud v:nameU="visVersion" v:prompt="" v:val="VT0(15):26"/>
				</v:userDefs>
				<path d="M0 327.46 L16.71 327.46 L22.11 147.47 L5.4 147.47 L0 327.46 Z" class="st3"/>
			</g>
			<g id="shape95-15" v:mID="95" v:groupContext="shape" transform="translate(5.79536E-014,-93.4989)">
				<title>Paralelogramo.95</title>
				<v:userDefs>
					<v:ud v:nameU="visVersion" v:prompt="" v:val="VT0(15):26"/>
				</v:userDefs>
				<path d="M0 327.46 L16.67 327.46 L32.54 240.97 L15.87 240.97 L0 327.46 Z" class="st3"/>
			</g>
			<g id="shape97-17" v:mID="97" v:groupContext="shape" transform="translate(80.9532,-93.5063) scale(-1,1)">
				<title>Paralelogramo.97</title>
				<v:userDefs>
					<v:ud v:nameU="visVersion" v:prompt="" v:val="VT0(15):26"/>
				</v:userDefs>
				<path d="M0 327.46 L16.67 327.46 L32.54 240.97 L15.87 240.97 L0 327.46 Z" class="st3"/>
			</g>
		</g>
		<g id="group63-19" transform="translate(0.12,-171.342)" v:mID="63" v:groupContext="group">
			<title>Hoja.63</title>
			<g id="shape60-20" v:mID="60" v:groupContext="shape" transform="translate(71.1307,-5.68434E-014)">
				<title>Comillas</title>
				<v:userDefs>
					<v:ud v:nameU="visVersion" v:prompt="" v:val="VT0(15):26"/>
				</v:userDefs>
				<path d="M0 327.46 L16.14 327.46 L40.35 307.34 L16.14 287.23 L0 287.23 L24.21 307.34 L0 327.46 Z" class="st4"/>
			</g>
			<g id="shape61-22" v:mID="61" v:groupContext="shape" transform="translate(40.3497,614.689) rotate(180)">
				<title>Comillas.61</title>
				<v:userDefs>
					<v:ud v:nameU="visVersion" v:prompt="" v:val="VT0(15):26"/>
				</v:userDefs>
				<path d="M0 327.46 L16.14 327.46 L40.35 307.34 L16.14 287.23 L0 287.23 L24.21 307.34 L0 327.46 Z" class="st4"/>
			</g>
			<g id="shape62-24" v:mID="62" v:groupContext="shape" transform="translate(42.4248,5.68434E-014)">
				<title>Paralelogramo</title>
				<v:userDefs>
					<v:ud v:nameU="visVersion" v:prompt="" v:val="VT0(15):26"/>
				</v:userDefs>
				<path d="M0 327.46 L12.57 327.46 L26.63 287.23 L14.06 287.23 L0 327.46 Z" class="st4"/>
			</g>
		</g>
		<g id="group72-26" transform="translate(526.626,-165.947)" v:mID="72" v:groupContext="group">
			<title>Hoja.72</title>
			<g id="shape64-27" v:mID="64" v:groupContext="shape" transform="translate(0,-22.8301)">
				<title>Elipse</title>
				<v:userDefs>
					<v:ud v:nameU="visVersion" v:val="VT0(15):26"/>
				</v:userDefs>
				<path d="M0 317.66 A19.1497 9.79773 0 0 1 38.3 317.66 A19.1497 9.79773 0 1 1 0 317.66 Z" class="st5"/>
			</g>
			<g id="group68-29" transform="translate(25.0747,-35.1357)" v:mID="68" v:groupContext="group">
				<title>Hoja.68</title>
				<g id="shape65-30" v:mID="65" v:groupContext="shape" transform="translate(27.3346,-12.0415)">
					<title>Elipse.65</title>
					<v:userDefs>
						<v:ud v:nameU="visVersion" v:val="VT0(15):26"/>
					</v:userDefs>
					<path d="M0 317.66 A19.1497 9.79773 0 1 1 38.3 317.66 A19.1497 9.79773 0 0 1 0 317.66 Z" class="st5"/>
				</g>
				<g id="shape67-32" v:mID="67" v:groupContext="shape" transform="translate(234.52,91.7916) rotate(45)">
					<title>Paralelogramo</title>
					<v:userDefs>
						<v:ud v:nameU="visVersion" v:prompt="" v:val="VT0(15):26"/>
					</v:userDefs>
					<path d="M0 327.46 L7.84 327.46 L16.62 288.07 L8.78 288.07 L0 327.46 Z" class="st4"/>
				</g>
			</g>
			<g id="group69-34" transform="translate(25.0747,623.286) scale(1,-1)" v:mID="69" v:groupContext="group">
				<title>Hoja.69</title>
				<g id="shape70-35" v:mID="70" v:groupContext="shape" transform="translate(27.3346,-12.0415)">
					<title>Elipse.65</title>
					<v:userDefs>
						<v:ud v:nameU="visVersion" v:val="VT0(15):26"/>
					</v:userDefs>
					<path d="M0 317.66 A19.1497 9.79773 0 1 1 38.3 317.66 A19.1497 9.79773 0 0 1 0 317.66 Z" class="st5"/>
				</g>
				<g id="shape71-37" v:mID="71" v:groupContext="shape" transform="translate(234.52,91.7916) rotate(45)">
					<title>Paralelogramo</title>
					<v:userDefs>
						<v:ud v:nameU="visVersion" v:prompt="" v:val="VT0(15):26"/>
					</v:userDefs>
					<path d="M0 327.46 L7.84 327.46 L16.62 288.07 L8.78 288.07 L0 327.46 Z" class="st4"/>
				</g>
			</g>
		</g>
		<g id="group99-39" transform="translate(85.1594,-4.37197)" v:mID="99" v:groupContext="group">
			<title>Hoja.99</title>
			<g id="group35-40" transform="translate(205.36,-194.173) scale(-1,1)" v:mID="35" v:groupContext="group">
				<title>Hoja.35</title>
				<g id="shape36-41" v:mID="36" v:groupContext="shape" transform="translate(118.599,586.385) rotate(-165)">
					<title>Trapecio.33</title>
					<v:userDefs>
						<v:ud v:nameU="visVersion" v:prompt="" v:val="VT0(15):26"/>
					</v:userDefs>
					<path d="M0 327.46 L79.7 327.46 L61.8 299.6 L17.9 299.6 L0 327.46 Z" class="st6"/>
				</g>
				<g id="shape37-43" v:mID="37" v:groupContext="shape" transform="translate(-1.1811,5.68434E-014)">
					<title>Paralelogramo</title>
					<v:userDefs>
						<v:ud v:nameU="visVersion" v:prompt="" v:val="VT0(15):26"/>
					</v:userDefs>
					<path d="M0 327.46 L17.58 327.46 L56.69 248.09 L39.11 248.09 L0 327.46 Z" class="st6"/>
				</g>
				<g id="shape38-45" v:mID="38" v:groupContext="shape" transform="translate(-104.812,469.372) rotate(-135)">
					<title>Paralelogramo.28</title>
					<v:userDefs>
						<v:ud v:nameU="visVersion" v:prompt="" v:val="VT0(15):26"/>
					</v:userDefs>
					<path d="M0 327.46 L17.22 327.46 L55.55 256.86 L38.32 256.86 L0 327.46 Z" class="st6"/>
				</g>
				<g id="shape39-47" v:mID="39" v:groupContext="shape" transform="translate(173.2,-67.8013) rotate(15)">
					<title>Trapecio.31</title>
					<v:userDefs>
						<v:ud v:nameU="visVersion" v:prompt="" v:val="VT0(15):26"/>
					</v:userDefs>
					<path d="M0 327.46 L121.04 327.46 L104.5 298.71 L16.54 298.71 L0 327.46 Z" class="st6"/>
				</g>
			</g>
			<g id="group34-49" transform="translate(231.496,-194.173)" v:mID="34" v:groupContext="group">
				<title>Hoja.34</title>
				<g id="shape33-50" v:mID="33" v:groupContext="shape" transform="translate(118.599,586.385) rotate(-165)">
					<title>Trapecio.33</title>
					<v:userDefs>
						<v:ud v:nameU="visVersion" v:prompt="" v:val="VT0(15):26"/>
					</v:userDefs>
					<path d="M0 327.46 L79.7 327.46 L61.8 299.6 L17.9 299.6 L0 327.46 Z" class="st6"/>
				</g>
				<g id="shape27-52" v:mID="27" v:groupContext="shape" transform="translate(-1.1811,5.68434E-014)">
					<title>Paralelogramo</title>
					<v:userDefs>
						<v:ud v:nameU="visVersion" v:prompt="" v:val="VT0(15):26"/>
					</v:userDefs>
					<path d="M0 327.46 L17.58 327.46 L56.69 248.09 L39.11 248.09 L0 327.46 Z" class="st6"/>
				</g>
				<g id="shape28-54" v:mID="28" v:groupContext="shape" transform="translate(-104.812,469.372) rotate(-135)">
					<title>Paralelogramo.28</title>
					<v:userDefs>
						<v:ud v:nameU="visVersion" v:prompt="" v:val="VT0(15):26"/>
					</v:userDefs>
					<path d="M0 327.46 L17.22 327.46 L55.55 256.86 L38.32 256.86 L0 327.46 Z" class="st6"/>
				</g>
				<g id="shape31-56" v:mID="31" v:groupContext="shape" transform="translate(172.9,-67.8815) rotate(15)">
					<title>Trapecio.31</title>
					<v:userDefs>
						<v:ud v:nameU="visVersion" v:prompt="" v:val="VT0(15):26"/>
					</v:userDefs>
					<path d="M0 327.46 L121.35 327.46 L104.77 298.71 L16.58 298.71 L0 327.46 Z" class="st6"/>
				</g>
			</g>
			<g id="shape17-58" v:mID="17" v:groupContext="shape" transform="translate(354.331,0)">
				<title>Rectángulo redondeado.17</title>
				<v:userDefs>
					<v:ud v:nameU="CTypeTopLeftSnip" v:prompt="" v:val="VT0(0):5"/>
					<v:ud v:nameU="CTypeTopRightSnip" v:prompt="" v:val="VT0(0):5"/>
					<v:ud v:nameU="CTypeBotLeftSnip" v:prompt="" v:val="VT0(0):5"/>
					<v:ud v:nameU="CTypeBotRightSnip" v:prompt="" v:val="VT0(0):5"/>
					<v:ud v:nameU="CornerLockHoriz" v:prompt="" v:val="VT0(1):5"/>
					<v:ud v:nameU="CornerLockVert" v:prompt="" v:val="VT0(1):5"/>
					<v:ud v:nameU="CornerLockDiag" v:prompt="" v:val="VT0(0):5"/>
					<v:ud v:nameU="TopLeftOffset" v:prompt="" v:val="VT0(0.15748031496063):24"/>
					<v:ud v:nameU="TopRightOffset" v:prompt="" v:val="VT0(0.15748031496063):24"/>
					<v:ud v:nameU="BotLeftOffset" v:prompt="" v:val="VT0(0.15748031496063):24"/>
					<v:ud v:nameU="BotRightOffset" v:prompt="" v:val="VT0(0.15748031496063):24"/>
					<v:ud v:nameU="visVersion" v:prompt="" v:val="VT0(15):26"/>
					<v:ud v:nameU="TopLeftOffset" v:prompt="" v:val="VT0(0.021267734072217):1"/>
					<v:ud v:nameU="TopRightOffset" v:prompt="" v:val="VT0(0.021267734072217):1"/>
					<v:ud v:nameU="BotLeftOffset" v:prompt="" v:val="VT0(0.021267734072217):1"/>
					<v:ud v:nameU="BotRightOffset" v:prompt="" v:val="VT0(0.021267734072217):1"/>
				</v:userDefs>
				<path d="M1.53 327.46 L45.24 327.46 A1.53125 1.53125 -180 0 0 46.77 325.93 L46.77 276.55 A1.53125 1.53125 -180 0
							 0 45.24 275.02 L1.53 275.02 A1.53125 1.53125 -180 0 0 -0 276.55 L0 325.93 A1.53125 1.53125 -180 0 0
							 1.53 327.46 Z" class="st7"/>
			</g>
			<g id="shape2-60" v:mID="2" v:groupContext="shape" transform="translate(38.2677,0)">
				<title>Rectángulo redondeado</title>
				<v:userDefs>
					<v:ud v:nameU="CTypeTopLeftSnip" v:prompt="" v:val="VT0(0):5"/>
					<v:ud v:nameU="CTypeTopRightSnip" v:prompt="" v:val="VT0(0):5"/>
					<v:ud v:nameU="CTypeBotLeftSnip" v:prompt="" v:val="VT0(0):5"/>
					<v:ud v:nameU="CTypeBotRightSnip" v:prompt="" v:val="VT0(0):5"/>
					<v:ud v:nameU="CornerLockHoriz" v:prompt="" v:val="VT0(1):5"/>
					<v:ud v:nameU="CornerLockVert" v:prompt="" v:val="VT0(1):5"/>
					<v:ud v:nameU="CornerLockDiag" v:prompt="" v:val="VT0(0):5"/>
					<v:ud v:nameU="TopLeftOffset" v:prompt="" v:val="VT0(0.15748031496063):24"/>
					<v:ud v:nameU="TopRightOffset" v:prompt="" v:val="VT0(0.15748031496063):24"/>
					<v:ud v:nameU="BotLeftOffset" v:prompt="" v:val="VT0(0.15748031496063):24"/>
					<v:ud v:nameU="BotRightOffset" v:prompt="" v:val="VT0(0.15748031496063):24"/>
					<v:ud v:nameU="visVersion" v:prompt="" v:val="VT0(15):26"/>
					<v:ud v:nameU="TopLeftOffset" v:prompt="" v:val="VT0(0.021267734072217):1"/>
					<v:ud v:nameU="TopRightOffset" v:prompt="" v:val="VT0(0.021267734072217):1"/>
					<v:ud v:nameU="BotLeftOffset" v:prompt="" v:val="VT0(0.021267734072217):1"/>
					<v:ud v:nameU="BotRightOffset" v:prompt="" v:val="VT0(0.021267734072217):1"/>
				</v:userDefs>
				<path d="M1.53 327.46 L45.24 327.46 A1.53125 1.53125 -180 0 0 46.77 325.93 L46.77 276.55 A1.53125 1.53125 -180 0
							 0 45.24 275.02 L1.53 275.02 A1.53125 1.53125 -180 0 0 -0 276.55 L0 325.93 A1.53125 1.53125 -180 0 0
							 1.53 327.46 Z" class="st7"/>
			</g>
			<g id="shape18-62" v:mID="18" v:groupContext="shape" transform="translate(35.5681,-28.9201)">
				<title>Rectángulo redondeado.18</title>
				<v:userDefs>
					<v:ud v:nameU="CTypeTopLeftSnip" v:prompt="" v:val="VT0(0):5"/>
					<v:ud v:nameU="CTypeTopRightSnip" v:prompt="" v:val="VT0(0):5"/>
					<v:ud v:nameU="CTypeBotLeftSnip" v:prompt="" v:val="VT0(0):5"/>
					<v:ud v:nameU="CTypeBotRightSnip" v:prompt="" v:val="VT0(0):5"/>
					<v:ud v:nameU="CornerLockHoriz" v:prompt="" v:val="VT0(1):5"/>
					<v:ud v:nameU="CornerLockVert" v:prompt="" v:val="VT0(1):5"/>
					<v:ud v:nameU="CornerLockDiag" v:prompt="" v:val="VT0(0):5"/>
					<v:ud v:nameU="TopLeftOffset" v:prompt="" v:val="VT0(0.15748031496063):24"/>
					<v:ud v:nameU="TopRightOffset" v:prompt="" v:val="VT0(0.15748031496063):24"/>
					<v:ud v:nameU="BotLeftOffset" v:prompt="" v:val="VT0(0.15748031496063):24"/>
					<v:ud v:nameU="BotRightOffset" v:prompt="" v:val="VT0(0.15748031496063):24"/>
					<v:ud v:nameU="visVersion" v:prompt="" v:val="VT0(15):26"/>
					<v:ud v:nameU="TopLeftOffset" v:prompt="" v:val="VT0(0.2774653168354):1"/>
					<v:ud v:nameU="TopRightOffset" v:prompt="" v:val="VT0(0.2774653168354):1"/>
					<v:ud v:nameU="BotLeftOffset" v:prompt="" v:val="VT0(0.2774653168354):1"/>
					<v:ud v:nameU="BotRightOffset" v:prompt="" v:val="VT0(0.2774653168354):1"/>
				</v:userDefs>
				<path d="M19.98 327.46 L347.11 327.46 A19.9772 19.9772 -180 0 0 367.09 307.48 L367.09 295 A19.9772 19.9772 -180 0
							 0 347.11 275.02 L19.98 275.02 A19.9772 19.9772 -180 0 0 0 295 L0 307.48 A19.9772 19.9772 -180 0 0 19.98
							 327.46 Z" class="st8"/>
			</g>
			<g id="shape3-64" v:mID="3" v:groupContext="shape" transform="translate(413.251,569.006) rotate(180)">
				<title>Trapecio</title>
				<v:userDefs>
					<v:ud v:nameU="visVersion" v:prompt="" v:val="VT0(15):26"/>
				</v:userDefs>
				<path d="M0 327.46 L386.93 327.46 L378.9 298.71 L8.03 298.71 L0 327.46 Z" class="st7"/>
			</g>
			<g id="shape4-66" v:mID="4" v:groupContext="shape" transform="translate(41.2036,-95.011)">
				<title>Trapecio.4</title>
				<v:userDefs>
					<v:ud v:nameU="visVersion" v:prompt="" v:val="VT0(15):26"/>
				</v:userDefs>
				<path d="M0 327.46 L357.17 327.46 L349.75 298.71 L7.41 298.71 L0 327.46 Z" class="st9"/>
			</g>
			<g id="shape41-68" v:mID="41" v:groupContext="shape" transform="translate(49.6063,-95.011)">
				<title>Redondear rectángulo de esquina del mismo lado</title>
				<v:userDefs>
					<v:ud v:nameU="CTypeTopLeftSnip" v:prompt="" v:val="VT0(0):5"/>
					<v:ud v:nameU="CTypeTopRightSnip" v:prompt="" v:val="VT0(0):5"/>
					<v:ud v:nameU="CTypeBotLeftSnip" v:prompt="" v:val="VT0(1):5"/>
					<v:ud v:nameU="CTypeBotRightSnip" v:prompt="" v:val="VT0(0):5"/>
					<v:ud v:nameU="CornerLockHoriz" v:prompt="" v:val="VT0(1):5"/>
					<v:ud v:nameU="CornerLockVert" v:prompt="" v:val="VT0(0):5"/>
					<v:ud v:nameU="CornerLockDiag" v:prompt="" v:val="VT0(0):5"/>
					<v:ud v:nameU="TopLeftOffset" v:prompt="" v:val="VT0(0.15748031496063):24"/>
					<v:ud v:nameU="TopRightOffset" v:prompt="" v:val="VT0(0.15748031496063):24"/>
					<v:ud v:nameU="BotLeftOffset" v:prompt="" v:val="VT0(0):24"/>
					<v:ud v:nameU="BotRightOffset" v:prompt="" v:val="VT0(0):24"/>
					<v:ud v:nameU="visVersion" v:prompt="" v:val="VT0(15):26"/>
					<v:ud v:nameU="TopLeftOffset" v:prompt="" v:val="VT0(0.10733033370828):1"/>
					<v:ud v:nameU="TopRightOffset" v:prompt="" v:val="VT0(0.10733033370828):1"/>
				</v:userDefs>
				<path d="M0 327.46 L340.8 327.46 L340.8 306.43 A7.72766 7.72766 -180 0 0 333.07 298.71 L7.73 298.71 A7.72766 7.72766
							 -180 0 0 0 306.43 L0 327.46 Z" class="st10"/>
			</g>
			<g id="shape5-70" v:mID="5" v:groupContext="shape" transform="translate(26.3217,-85.7143)">
				<title>Trapecio.5</title>
				<v:userDefs>
					<v:ud v:nameU="visVersion" v:prompt="" v:val="VT0(15):26"/>
				</v:userDefs>
				<path d="M0 327.46 L386.93 327.46 L372.76 318.16 L14.17 318.16 L0 327.46 Z" class="st6"/>
			</g>
			<g id="shape7-72" v:mID="7" v:groupContext="shape" transform="translate(139.708,-95.2272)">
				<title>Rectángulo</title>
				<v:userDefs>
					<v:ud v:nameU="visVersion" v:val="VT0(15):26"/>
				</v:userDefs>
				<rect x="0" y="298.707" width="160.198" height="28.7548" class="st11"/>
			</g>
			<g id="shape8-74" v:mID="8" v:groupContext="shape" transform="translate(307.127,-95.2272)">
				<title>Rectángulo redondeado.8</title>
				<v:userDefs>
					<v:ud v:nameU="CTypeTopLeftSnip" v:prompt="" v:val="VT0(0):5"/>
					<v:ud v:nameU="CTypeTopRightSnip" v:prompt="" v:val="VT0(0):5"/>
					<v:ud v:nameU="CTypeBotLeftSnip" v:prompt="" v:val="VT0(0):5"/>
					<v:ud v:nameU="CTypeBotRightSnip" v:prompt="" v:val="VT0(0):5"/>
					<v:ud v:nameU="CornerLockHoriz" v:prompt="" v:val="VT0(1):5"/>
					<v:ud v:nameU="CornerLockVert" v:prompt="" v:val="VT0(1):5"/>
					<v:ud v:nameU="CornerLockDiag" v:prompt="" v:val="VT0(0):5"/>
					<v:ud v:nameU="TopLeftOffset" v:prompt="" v:val="VT0(0.15748031496063):24"/>
					<v:ud v:nameU="TopRightOffset" v:prompt="" v:val="VT0(0.15748031496063):24"/>
					<v:ud v:nameU="BotLeftOffset" v:prompt="" v:val="VT0(0.15748031496063):24"/>
					<v:ud v:nameU="BotRightOffset" v:prompt="" v:val="VT0(0.15748031496063):24"/>
					<v:ud v:nameU="visVersion" v:prompt="" v:val="VT0(15):26"/>
					<v:ud v:nameU="TopLeftOffset" v:prompt="" v:val="VT0(0.046934635353987):1"/>
					<v:ud v:nameU="TopRightOffset" v:prompt="" v:val="VT0(0.046934635353987):1"/>
					<v:ud v:nameU="BotLeftOffset" v:prompt="" v:val="VT0(0.046934635353987):1"/>
					<v:ud v:nameU="BotRightOffset" v:prompt="" v:val="VT0(0.046934635353987):1"/>
				</v:userDefs>
				<path d="M3.38 327.46 L33.47 327.46 A3.37924 3.37924 -180 0 0 36.85 324.08 L36.85 302.09 A3.37924 3.37924 -180 0
							 0 33.47 298.71 L3.38 298.71 A3.37924 3.37924 -180 0 0 -0 302.09 L0 324.08 A3.37924 3.37924 -180 0 0
							 3.38 327.46 Z" class="st12"/>
			</g>
			<g id="shape9-76" v:mID="9" v:groupContext="shape" transform="translate(346.745,-95.2272)">
				<title>Rectángulo redondeado.9</title>
				<v:userDefs>
					<v:ud v:nameU="CTypeTopLeftSnip" v:prompt="" v:val="VT0(0):5"/>
					<v:ud v:nameU="CTypeTopRightSnip" v:prompt="" v:val="VT0(0):5"/>
					<v:ud v:nameU="CTypeBotLeftSnip" v:prompt="" v:val="VT0(0):5"/>
					<v:ud v:nameU="CTypeBotRightSnip" v:prompt="" v:val="VT0(0):5"/>
					<v:ud v:nameU="CornerLockHoriz" v:prompt="" v:val="VT0(1):5"/>
					<v:ud v:nameU="CornerLockVert" v:prompt="" v:val="VT0(1):5"/>
					<v:ud v:nameU="CornerLockDiag" v:prompt="" v:val="VT0(0):5"/>
					<v:ud v:nameU="TopLeftOffset" v:prompt="" v:val="VT0(0.15748031496063):24"/>
					<v:ud v:nameU="TopRightOffset" v:prompt="" v:val="VT0(0.15748031496063):24"/>
					<v:ud v:nameU="BotLeftOffset" v:prompt="" v:val="VT0(0.15748031496063):24"/>
					<v:ud v:nameU="BotRightOffset" v:prompt="" v:val="VT0(0.15748031496063):24"/>
					<v:ud v:nameU="visVersion" v:prompt="" v:val="VT0(15):26"/>
					<v:ud v:nameU="TopLeftOffset" v:prompt="" v:val="VT0(0.046934635353987):1"/>
					<v:ud v:nameU="TopRightOffset" v:prompt="" v:val="VT0(0.046934635353987):1"/>
					<v:ud v:nameU="BotLeftOffset" v:prompt="" v:val="VT0(0.046934635353987):1"/>
					<v:ud v:nameU="BotRightOffset" v:prompt="" v:val="VT0(0.046934635353987):1"/>
				</v:userDefs>
				<path d="M3.38 327.46 L33.47 327.46 A3.37924 3.37924 -180 0 0 36.85 324.08 L36.85 302.09 A3.37924 3.37924 -180 0
							 0 33.47 298.71 L3.38 298.71 A3.37924 3.37924 -180 0 0 -0 302.09 L0 324.08 A3.37924 3.37924 -180 0 0
							 3.38 327.46 Z" class="st12"/>
			</g>
			<g id="shape10-78" v:mID="10" v:groupContext="shape" transform="translate(54.6682,-95.011)">
				<title>Rectángulo redondeado.10</title>
				<v:userDefs>
					<v:ud v:nameU="CTypeTopLeftSnip" v:prompt="" v:val="VT0(0):5"/>
					<v:ud v:nameU="CTypeTopRightSnip" v:prompt="" v:val="VT0(0):5"/>
					<v:ud v:nameU="CTypeBotLeftSnip" v:prompt="" v:val="VT0(0):5"/>
					<v:ud v:nameU="CTypeBotRightSnip" v:prompt="" v:val="VT0(0):5"/>
					<v:ud v:nameU="CornerLockHoriz" v:prompt="" v:val="VT0(1):5"/>
					<v:ud v:nameU="CornerLockVert" v:prompt="" v:val="VT0(1):5"/>
					<v:ud v:nameU="CornerLockDiag" v:prompt="" v:val="VT0(0):5"/>
					<v:ud v:nameU="TopLeftOffset" v:prompt="" v:val="VT0(0.15748031496063):24"/>
					<v:ud v:nameU="TopRightOffset" v:prompt="" v:val="VT0(0.15748031496063):24"/>
					<v:ud v:nameU="BotLeftOffset" v:prompt="" v:val="VT0(0.15748031496063):24"/>
					<v:ud v:nameU="BotRightOffset" v:prompt="" v:val="VT0(0.15748031496063):24"/>
					<v:ud v:nameU="visVersion" v:prompt="" v:val="VT0(15):26"/>
					<v:ud v:nameU="TopLeftOffset" v:prompt="" v:val="VT0(0.046934635353987):1"/>
					<v:ud v:nameU="TopRightOffset" v:prompt="" v:val="VT0(0.046934635353987):1"/>
					<v:ud v:nameU="BotLeftOffset" v:prompt="" v:val="VT0(0.046934635353987):1"/>
					<v:ud v:nameU="BotRightOffset" v:prompt="" v:val="VT0(0.046934635353987):1"/>
				</v:userDefs>
				<path d="M3.38 327.46 L33.47 327.46 A3.37924 3.37924 -180 0 0 36.85 324.08 L36.85 302.09 A3.37924 3.37924 -180 0
							 0 33.47 298.71 L3.38 298.71 A3.37924 3.37924 -180 0 0 -0 302.09 L0 324.08 A3.37924 3.37924 -180 0 0
							 3.38 327.46 Z" class="st12"/>
			</g>
			<g id="shape11-80" v:mID="11" v:groupContext="shape" transform="translate(94.2857,-95.011)">
				<title>Rectángulo redondeado.11</title>
				<v:userDefs>
					<v:ud v:nameU="CTypeTopLeftSnip" v:prompt="" v:val="VT0(0):5"/>
					<v:ud v:nameU="CTypeTopRightSnip" v:prompt="" v:val="VT0(0):5"/>
					<v:ud v:nameU="CTypeBotLeftSnip" v:prompt="" v:val="VT0(0):5"/>
					<v:ud v:nameU="CTypeBotRightSnip" v:prompt="" v:val="VT0(0):5"/>
					<v:ud v:nameU="CornerLockHoriz" v:prompt="" v:val="VT0(1):5"/>
					<v:ud v:nameU="CornerLockVert" v:prompt="" v:val="VT0(1):5"/>
					<v:ud v:nameU="CornerLockDiag" v:prompt="" v:val="VT0(0):5"/>
					<v:ud v:nameU="TopLeftOffset" v:prompt="" v:val="VT0(0.15748031496063):24"/>
					<v:ud v:nameU="TopRightOffset" v:prompt="" v:val="VT0(0.15748031496063):24"/>
					<v:ud v:nameU="BotLeftOffset" v:prompt="" v:val="VT0(0.15748031496063):24"/>
					<v:ud v:nameU="BotRightOffset" v:prompt="" v:val="VT0(0.15748031496063):24"/>
					<v:ud v:nameU="visVersion" v:prompt="" v:val="VT0(15):26"/>
					<v:ud v:nameU="TopLeftOffset" v:prompt="" v:val="VT0(0.046934635353987):1"/>
					<v:ud v:nameU="TopRightOffset" v:prompt="" v:val="VT0(0.046934635353987):1"/>
					<v:ud v:nameU="BotLeftOffset" v:prompt="" v:val="VT0(0.046934635353987):1"/>
					<v:ud v:nameU="BotRightOffset" v:prompt="" v:val="VT0(0.046934635353987):1"/>
				</v:userDefs>
				<path d="M3.38 327.46 L33.47 327.46 A3.37924 3.37924 -180 0 0 36.85 324.08 L36.85 302.09 A3.37924 3.37924 -180 0
							 0 33.47 298.71 L3.38 298.71 A3.37924 3.37924 -180 0 0 -0 302.09 L0 324.08 A3.37924 3.37924 -180 0 0
							 3.38 327.46 Z" class="st12"/>
			</g>
			<g id="shape13-82" v:mID="13" v:groupContext="shape" transform="translate(401.297,245.797) rotate(90)">
				<title>Rectángulo.13</title>
				<v:userDefs>
					<v:ud v:nameU="visVersion" v:val="VT0(15):26"/>
				</v:userDefs>
				<rect x="0" y="290.611" width="18.4252" height="36.8504" class="st13"/>
			</g>
			<g id="shape14-84" v:mID="14" v:groupContext="shape" transform="translate(661.342,245.797) rotate(90)">
				<title>Rectángulo.14</title>
				<v:userDefs>
					<v:ud v:nameU="visVersion" v:val="VT0(15):26"/>
				</v:userDefs>
				<rect x="0" y="290.611" width="18.4252" height="36.8504" class="st13"/>
			</g>
			<g id="shape15-86" v:mID="15" v:groupContext="shape" transform="translate(48.8301,-124.117)">
				<title>Trapecio.15</title>
				<v:userDefs>
					<v:ud v:nameU="visVersion" v:prompt="" v:val="VT0(15):26"/>
				</v:userDefs>
				<path d="M0 327.46 L340.8 327.46 L277.59 284.94 L63.21 284.94 L0 327.46 Z" class="st14"/>
			</g>
			<g id="shape16-88" v:mID="16" v:groupContext="shape" transform="translate(110.551,-165.827)">
				<title>Trapecio.16</title>
				<v:userDefs>
					<v:ud v:nameU="visVersion" v:prompt="" v:val="VT0(15):26"/>
				</v:userDefs>
				<path d="M0 327.46 L217.49 327.46 L175.88 284.94 L41.61 284.94 L0 327.46 Z" class="st14"/>
			</g>
			<g id="shape19-90" v:mID="19" v:groupContext="shape" transform="translate(112.778,-166.13)">
				<title>Trapecio.19</title>
				<v:userDefs>
					<v:ud v:nameU="visVersion" v:prompt="" v:val="VT0(15):26"/>
				</v:userDefs>
				<path d="M0 327.46 L211.72 327.46 L172.45 287.23 L39.27 287.23 L0 327.46 Z" class="st10"/>
			</g>
			<g id="shape42-92" v:mID="42" v:groupContext="shape" transform="translate(142.551,-118.961)">
				<title>Hoja.42</title>
				<path d="M0 327.46 L154.52 327.46" class="st15"/>
			</g>
			<g id="shape43-95" v:mID="43" v:groupContext="shape" transform="translate(142.495,-115.937)">
				<title>Hoja.43</title>
				<path d="M0 327.46 L154.52 327.46" class="st15"/>
			</g>
			<g id="shape44-98" v:mID="44" v:groupContext="shape" transform="translate(142.551,-113.291)">
				<title>Hoja.44</title>
				<path d="M0 327.46 L154.52 327.46" class="st15"/>
			</g>
			<g id="shape45-101" v:mID="45" v:groupContext="shape" transform="translate(142.495,-110.268)">
				<title>Hoja.45</title>
				<path d="M0 327.46 L154.52 327.46" class="st15"/>
			</g>
			<g id="shape46-104" v:mID="46" v:groupContext="shape" transform="translate(142.355,-107.689)">
				<title>Hoja.46</title>
				<path d="M0 327.46 L154.52 327.46" class="st15"/>
			</g>
			<g id="shape47-107" v:mID="47" v:groupContext="shape" transform="translate(142.299,-105.165)">
				<title>Hoja.47</title>
				<path d="M0 327.46 L154.52 327.46" class="st15"/>
			</g>
			<g id="shape48-110" v:mID="48" v:groupContext="shape" transform="translate(142.355,-102.52)">
				<title>Hoja.48</title>
				<path d="M0 327.46 L154.52 327.46" class="st15"/>
			</g>
			<g id="shape49-113" v:mID="49" v:groupContext="shape" transform="translate(142.299,-99.4961)">
				<title>Hoja.49</title>
				<path d="M0 327.46 L154.52 327.46" class="st15"/>
			</g>
			<g id="group59-116" transform="translate(204.925,-106.098)" v:mID="59" v:groupContext="group">
				<title>Hoja.59</title>
				<g id="shape51-117" v:mID="51" v:groupContext="shape">
					<title>Rectángulo redondeado.51</title>
					<v:userDefs>
						<v:ud v:nameU="CTypeTopLeftSnip" v:prompt="" v:val="VT0(0):5"/>
						<v:ud v:nameU="CTypeTopRightSnip" v:prompt="" v:val="VT0(0):5"/>
						<v:ud v:nameU="CTypeBotLeftSnip" v:prompt="" v:val="VT0(0):5"/>
						<v:ud v:nameU="CTypeBotRightSnip" v:prompt="" v:val="VT0(0):5"/>
						<v:ud v:nameU="CornerLockHoriz" v:prompt="" v:val="VT0(1):5"/>
						<v:ud v:nameU="CornerLockVert" v:prompt="" v:val="VT0(1):5"/>
						<v:ud v:nameU="CornerLockDiag" v:prompt="" v:val="VT0(0):5"/>
						<v:ud v:nameU="TopLeftOffset" v:prompt="" v:val="VT0(0.15748031496063):24"/>
						<v:ud v:nameU="TopRightOffset" v:prompt="" v:val="VT0(0.15748031496063):24"/>
						<v:ud v:nameU="BotLeftOffset" v:prompt="" v:val="VT0(0.15748031496063):24"/>
						<v:ud v:nameU="BotRightOffset" v:prompt="" v:val="VT0(0.15748031496063):24"/>
						<v:ud v:nameU="visVersion" v:prompt="" v:val="VT0(15):26"/>
						<v:ud v:nameU="TopLeftOffset" v:prompt="" v:val="VT0(0.0098281928732707):1"/>
						<v:ud v:nameU="TopRightOffset" v:prompt="" v:val="VT0(0.0098281928732707):1"/>
						<v:ud v:nameU="BotLeftOffset" v:prompt="" v:val="VT0(0.0098281928732707):1"/>
						<v:ud v:nameU="BotRightOffset" v:prompt="" v:val="VT0(0.0098281928732707):1"/>
					</v:userDefs>
					<path d="M0.71 327.46 L7.01 327.46 a0.707618 0.707618 -180 0 0 0.70763 -0.70763 L7.72 321.19 a0.707618 0.707618
								 -180 0 0 -0.70763 -0.70763 L0.71 320.49 a0.707618 0.707618 -180 0 0 -0.70763 0.70763 L0 326.75 a0.707618
								 0.707618 -180 0 0 0.70763 0.70763 Z" class="st12"/>
				</g>
				<g id="shape52-119" v:mID="52" v:groupContext="shape" transform="translate(0,-3.48737)">
					<title>Hoja.52</title>
					<path d="M0 327.46 L3.49 327.46" class="st16"/>
				</g>
				<g id="group55-122" transform="translate(22.0472,-0.0375092)" v:mID="55" v:groupContext="group">
					<title>Hoja.55</title>
					<g id="shape53-123" v:mID="53" v:groupContext="shape" transform="translate(7.71654,647.948) rotate(180)">
						<title>Rectángulo redondeado.53</title>
						<v:userDefs>
							<v:ud v:nameU="CTypeTopLeftSnip" v:prompt="" v:val="VT0(0):5"/>
							<v:ud v:nameU="CTypeTopRightSnip" v:prompt="" v:val="VT0(0):5"/>
							<v:ud v:nameU="CTypeBotLeftSnip" v:prompt="" v:val="VT0(0):5"/>
							<v:ud v:nameU="CTypeBotRightSnip" v:prompt="" v:val="VT0(0):5"/>
							<v:ud v:nameU="CornerLockHoriz" v:prompt="" v:val="VT0(1):5"/>
							<v:ud v:nameU="CornerLockVert" v:prompt="" v:val="VT0(1):5"/>
							<v:ud v:nameU="CornerLockDiag" v:prompt="" v:val="VT0(0):5"/>
							<v:ud v:nameU="TopLeftOffset" v:prompt="" v:val="VT0(0.15748031496063):24"/>
							<v:ud v:nameU="TopRightOffset" v:prompt="" v:val="VT0(0.15748031496063):24"/>
							<v:ud v:nameU="BotLeftOffset" v:prompt="" v:val="VT0(0.15748031496063):24"/>
							<v:ud v:nameU="BotRightOffset" v:prompt="" v:val="VT0(0.15748031496063):24"/>
							<v:ud v:nameU="visVersion" v:prompt="" v:val="VT0(15):26"/>
							<v:ud v:nameU="TopLeftOffset" v:prompt="" v:val="VT0(0.0098281928732707):1"/>
							<v:ud v:nameU="TopRightOffset" v:prompt="" v:val="VT0(0.0098281928732707):1"/>
							<v:ud v:nameU="BotLeftOffset" v:prompt="" v:val="VT0(0.0098281928732707):1"/>
							<v:ud v:nameU="BotRightOffset" v:prompt="" v:val="VT0(0.0098281928732707):1"/>
						</v:userDefs>
						<path d="M0.71 327.46 L7.01 327.46 a0.707618 0.707618 -180 0 0 0.70763 -0.70763 L7.72 321.19 a0.707618 0.707618
									 -180 0 0 -0.70763 -0.70763 L0.71 320.49 a0.707618 0.707618 -180 0 0 -0.70763 0.70763 L0 326.75
									 a0.707618 0.707618 -180 0 0 0.70763 0.70763 Z" class="st12"/>
					</g>
					<g id="shape54-125" v:mID="54" v:groupContext="shape" transform="translate(7.71654,651.435) rotate(180)">
						<title>Hoja.54</title>
						<path d="M0 327.46 L3.49 327.46" class="st16"/>
					</g>
				</g>
				<g id="shape56-128" v:mID="56" v:groupContext="shape" transform="translate(8.8189,5.68434E-014)">
					<title>Rectángulo redondeado.56</title>
					<v:userDefs>
						<v:ud v:nameU="CTypeTopLeftSnip" v:prompt="" v:val="VT0(0):5"/>
						<v:ud v:nameU="CTypeTopRightSnip" v:prompt="" v:val="VT0(0):5"/>
						<v:ud v:nameU="CTypeBotLeftSnip" v:prompt="" v:val="VT0(0):5"/>
						<v:ud v:nameU="CTypeBotRightSnip" v:prompt="" v:val="VT0(0):5"/>
						<v:ud v:nameU="CornerLockHoriz" v:prompt="" v:val="VT0(1):5"/>
						<v:ud v:nameU="CornerLockVert" v:prompt="" v:val="VT0(1):5"/>
						<v:ud v:nameU="CornerLockDiag" v:prompt="" v:val="VT0(0):5"/>
						<v:ud v:nameU="TopLeftOffset" v:prompt="" v:val="VT0(0.15748031496063):24"/>
						<v:ud v:nameU="TopRightOffset" v:prompt="" v:val="VT0(0.15748031496063):24"/>
						<v:ud v:nameU="BotLeftOffset" v:prompt="" v:val="VT0(0.15748031496063):24"/>
						<v:ud v:nameU="BotRightOffset" v:prompt="" v:val="VT0(0.15748031496063):24"/>
						<v:ud v:nameU="visVersion" v:prompt="" v:val="VT0(15):26"/>
						<v:ud v:nameU="TopLeftOffset" v:prompt="" v:val="VT0(0.015544590768949):1"/>
						<v:ud v:nameU="TopRightOffset" v:prompt="" v:val="VT0(0.015544590768949):1"/>
						<v:ud v:nameU="BotLeftOffset" v:prompt="" v:val="VT0(0.015544590768949):1"/>
						<v:ud v:nameU="BotRightOffset" v:prompt="" v:val="VT0(0.015544590768949):1"/>
					</v:userDefs>
					<path d="M1.12 327.46 L11.09 327.46 A1.11919 1.11919 -180 0 0 12.2 326.34 L12.2 321.61 A1.11919 1.11919 -180
								 0 0 11.09 320.49 L1.12 320.49 A1.11919 1.11919 -180 0 0 0 321.61 L0 326.34 A1.11919 1.11919 -180
								 0 0 1.12 327.46 Z" class="st12"/>
				</g>
				<g id="shape57-130" v:mID="57" v:groupContext="shape" transform="translate(340.69,323.477) rotate(90)">
					<title>Hoja.57</title>
					<path d="M0 327.46 L3.71 327.46" class="st16"/>
				</g>
				<g id="shape58-133" v:mID="58" v:groupContext="shape" transform="translate(345.099,323.477) rotate(90)">
					<title>Hoja.58</title>
					<path d="M0 327.46 L3.71 327.46" class="st16"/>
				</g>
			</g>
		</g>
		<g id="group100-136" transform="translate(14.8734,-15.4364)" v:mID="100" v:groupContext="group">
			<title>Hoja.100</title>
			<g id="shape86-137" v:mID="86" v:groupContext="shape" transform="translate(55.7035,-74.5193)">
				<title>Trapecio.86</title>
				<v:userDefs>
					<v:ud v:nameU="visVersion" v:prompt="" v:val="VT0(15):26"/>
				</v:userDefs>
				<path d="M0 327.46 L28.21 327.46 L16.43 255.59 L11.78 255.59 L0 327.46 Z" class="st17"/>
			</g>
			<g id="shape83-139" v:mID="83" v:groupContext="shape" transform="translate(28.2115,-75.1863) scale(-1,1)">
				<title>Trapecio.76</title>
				<v:userDefs>
					<v:ud v:nameU="visVersion" v:prompt="" v:val="VT0(15):26"/>
				</v:userDefs>
				<path d="M0 327.46 L28.21 327.46 L15.86 255.59 L12.35 255.59 L0 327.46 Z" class="st17"/>
			</g>
			<g id="shape81-141" v:mID="81" v:groupContext="shape" transform="translate(71.5773,5.68434E-014) scale(-1,1)">
				<title>Paralelogramo.81</title>
				<v:userDefs>
					<v:ud v:nameU="visVersion" v:prompt="" v:val="VT0(15):26"/>
				</v:userDefs>
				<path d="M0 327.46 L26.79 327.46 L29.76 242.42 L2.98 242.42 L0 327.46 Z" class="st18"/>
			</g>
			<g id="shape80-143" v:mID="80" v:groupContext="shape" transform="translate(13.0959,5.68434E-014)">
				<title>Paralelogramo</title>
				<v:userDefs>
					<v:ud v:nameU="visVersion" v:prompt="" v:val="VT0(15):26"/>
				</v:userDefs>
				<path d="M0 327.46 L26.79 327.46 L29.76 242.42 L2.98 242.42 L0 327.46 Z" class="st18"/>
			</g>
			<g id="shape75-145" v:mID="75" v:groupContext="shape" transform="translate(17.8893,-76.3535)">
				<title>Trapecio.75</title>
				<v:userDefs>
					<v:ud v:nameU="visVersion" v:prompt="" v:val="VT0(15):26"/>
				</v:userDefs>
				<path d="M0 327.46 L28.21 327.46 L19.97 255.59 L8.24 255.59 L0 327.46 Z" class="st17"/>
			</g>
			<g id="shape76-147" v:mID="76" v:groupContext="shape" transform="translate(64.0843,-76.3535) scale(-1,1)">
				<title>Trapecio.76</title>
				<v:userDefs>
					<v:ud v:nameU="visVersion" v:prompt="" v:val="VT0(15):26"/>
				</v:userDefs>
				<path d="M0 327.46 L28.21 327.46 L19.97 255.59 L8.24 255.59 L0 327.46 Z" class="st17"/>
			</g>
			<g id="shape77-149" v:mID="77" v:groupContext="shape" transform="translate(71.5773,-76.3535) scale(-1,1)">
				<title>Rectángulo redondeado.77</title>
				<v:userDefs>
					<v:ud v:nameU="CTypeTopLeftSnip" v:prompt="" v:val="VT0(0):5"/>
					<v:ud v:nameU="CTypeTopRightSnip" v:prompt="" v:val="VT0(0):5"/>
					<v:ud v:nameU="CTypeBotLeftSnip" v:prompt="" v:val="VT0(0):5"/>
					<v:ud v:nameU="CTypeBotRightSnip" v:prompt="" v:val="VT0(0):5"/>
					<v:ud v:nameU="CornerLockHoriz" v:prompt="" v:val="VT0(1):5"/>
					<v:ud v:nameU="CornerLockVert" v:prompt="" v:val="VT0(1):5"/>
					<v:ud v:nameU="CornerLockDiag" v:prompt="" v:val="VT0(0):5"/>
					<v:ud v:nameU="TopLeftOffset" v:prompt="" v:val="VT0(0.15748031496063):24"/>
					<v:ud v:nameU="TopRightOffset" v:prompt="" v:val="VT0(0.15748031496063):24"/>
					<v:ud v:nameU="BotLeftOffset" v:prompt="" v:val="VT0(0.15748031496063):24"/>
					<v:ud v:nameU="BotRightOffset" v:prompt="" v:val="VT0(0.15748031496063):24"/>
					<v:ud v:nameU="visVersion" v:prompt="" v:val="VT0(15):26"/>
					<v:ud v:nameU="TopLeftOffset" v:prompt="" v:val="VT0(0.030596795425067):1"/>
					<v:ud v:nameU="TopRightOffset" v:prompt="" v:val="VT0(0.030596795425067):1"/>
					<v:ud v:nameU="BotLeftOffset" v:prompt="" v:val="VT0(0.030596795425067):1"/>
					<v:ud v:nameU="BotRightOffset" v:prompt="" v:val="VT0(0.030596795425067):1"/>
				</v:userDefs>
				<path d="M2.2 327.46 L19.83 327.46 A2.20293 2.20293 -180 0 0 22.03 325.26 L22.03 257.79 A2.20293 2.20293 -180 0 0
							 19.83 255.59 L2.2 255.59 A2.20293 2.20293 -180 0 0 0 257.79 L0 325.26 A2.20293 2.20293 -180 0 0 2.2
							 327.46 Z" class="st19"/>
			</g>
			<g id="shape84-151" v:mID="84" v:groupContext="shape" transform="translate(34.2039,-76.3535) scale(-1,1)">
				<title>Rectángulo redondeado.84</title>
				<v:userDefs>
					<v:ud v:nameU="CTypeTopLeftSnip" v:prompt="" v:val="VT0(0):5"/>
					<v:ud v:nameU="CTypeTopRightSnip" v:prompt="" v:val="VT0(0):5"/>
					<v:ud v:nameU="CTypeBotLeftSnip" v:prompt="" v:val="VT0(0):5"/>
					<v:ud v:nameU="CTypeBotRightSnip" v:prompt="" v:val="VT0(0):5"/>
					<v:ud v:nameU="CornerLockHoriz" v:prompt="" v:val="VT0(1):5"/>
					<v:ud v:nameU="CornerLockVert" v:prompt="" v:val="VT0(1):5"/>
					<v:ud v:nameU="CornerLockDiag" v:prompt="" v:val="VT0(0):5"/>
					<v:ud v:nameU="TopLeftOffset" v:prompt="" v:val="VT0(0.15748031496063):24"/>
					<v:ud v:nameU="TopRightOffset" v:prompt="" v:val="VT0(0.15748031496063):24"/>
					<v:ud v:nameU="BotLeftOffset" v:prompt="" v:val="VT0(0.15748031496063):24"/>
					<v:ud v:nameU="BotRightOffset" v:prompt="" v:val="VT0(0.15748031496063):24"/>
					<v:ud v:nameU="visVersion" v:prompt="" v:val="VT0(15):26"/>
					<v:ud v:nameU="TopLeftOffset" v:prompt="" v:val="VT0(0.030596795425067):1"/>
					<v:ud v:nameU="TopRightOffset" v:prompt="" v:val="VT0(0.030596795425067):1"/>
					<v:ud v:nameU="BotLeftOffset" v:prompt="" v:val="VT0(0.030596795425067):1"/>
					<v:ud v:nameU="BotRightOffset" v:prompt="" v:val="VT0(0.030596795425067):1"/>
				</v:userDefs>
				<path d="M2.2 327.46 L19.83 327.46 A2.20293 2.20293 -180 0 0 22.03 325.26 L22.03 257.79 A2.20293 2.20293 -180 0 0
							 19.83 255.59 L2.2 255.59 A2.20293 2.20293 -180 0 0 0 257.79 L0 325.26 A2.20293 2.20293 -180 0 0 2.2
							 327.46 Z" class="st19"/>
			</g>
		</g>
	</g>
</svg>
